<svg width="132" height="96" viewBox="0 0 132 96" fill="none" xmlns="http://www.w3.org/2000/svg">
  <rect width="132" height="96" fill="transparent"/>
  <path d="M20 18H52V24H92V30H100V36H104V40H110V46H114V52H118V64H114V68H110V72H106V76H26V72H22V68H18V64H14V30H18V22H20V18Z" fill="rgba(70,246,255,0.10)"/>
  <path d="M18 24H52M52 24H92M92 24V28M18 24V28M92 28H98M18 28H14M98 28V32M14 28V32M98 32H102M14 32H10M102 32V36M10 32V36M102 36H106M10 36V40M106 36V40M10 40V44M106 40V44M10 44V48M106 44V48M10 48V52M106 48V52M10 52V56M106 52V56M10 56V60M106 56V60M10 60V64M106 60V64M10 64H14M106 64H102M14 64V68M102 64V68M14 68H18M102 68H98M18 68V72M98 68V72M18 72H22M98 72H94M22 72V76M94 72V76M22 76H90" stroke="#6AFFFF" stroke-width="4" stroke-linecap="square"/>
  <path d="M90 76H22" stroke="#6AFFFF" stroke-width="4" stroke-linecap="square"/>
  <path d="M38 68L42 68M42 68L46 64M46 64L50 60M50 60L54 56M54 56L58 52M58 52L62 48M62 48L66 44M66 44L70 40M70 40L74 36M74 36L78 32M78 32L82 28" stroke="#6AFFFF" stroke-width="4" stroke-linecap="square"/>
  <path d="M93 34H97M89 38H93" stroke="#FF4FD8" stroke-width="4" stroke-linecap="square"/>
</svg>
